<?xml version="1.0" standalone="no"?>
<!DOCTYPE svg PUBLIC "-//W3C//DTD SVG 20010904//EN"
 "http://www.w3.org/TR/2001/REC-SVG-20010904/DTD/svg10.dtd">
<svg version="1.0" xmlns="http://www.w3.org/2000/svg"
 width="1080.000000pt" height="1080.000000pt" viewBox="0 0 1080.000000 1080.000000"
 preserveAspectRatio="xMidYMid meet">

<g transform="translate(0.000000,1080.000000) scale(0.100000,-0.100000)"
fill="#000000" stroke="none">
<path d="M5583 6374 c-59 -21 -118 -89 -139 -160 -15 -54 -15 -61 1 -112 19
-61 74 -128 122 -148 65 -28 63 -18 63 -319 0 -150 -3 -281 -6 -290 -4 -9 -27
-27 -53 -40 -188 -96 -184 -344 7 -426 78 -34 171 -21 236 33 41 33 86 123 86
170 0 84 -41 162 -107 204 -23 14 -44 33 -48 42 -8 22 24 63 73 90 37 21 57
24 196 27 147 3 156 5 212 33 64 33 96 62 123 113 13 24 36 43 82 66 77 39
114 80 136 150 29 94 -8 196 -93 252 -185 122 -414 -57 -343 -270 13 -39 71
-104 112 -125 44 -23 32 -61 -33 -109 -38 -28 -89 -36 -255 -38 -106 -2 -126
-5 -168 -27 -74 -37 -77 -30 -77 204 0 105 3 201 6 214 4 14 25 32 55 47 52
27 88 68 113 129 20 48 20 91 1 147 -45 127 -174 188 -302 143z m174 -93 c48
-35 67 -77 61 -135 -7 -58 -41 -104 -96 -128 -38 -17 -50 -18 -86 -8 -49 14
-67 26 -90 62 -46 71 -36 147 26 203 33 31 45 35 92 35 43 0 61 -6 93 -29z
m654 -277 c41 -20 55 -34 71 -71 61 -138 -81 -266 -212 -192 -39 22 -80 87
-80 128 0 53 59 129 115 149 44 15 51 14 106 -14z m-670 -777 c77 -52 99 -133
57 -208 -38 -69 -141 -100 -200 -61 -84 56 -103 170 -39 246 41 48 128 59 182
23z"/>
</g>
</svg>
