<?xml version="1.0" standalone="no"?>
<!DOCTYPE svg PUBLIC "-//W3C//DTD SVG 20010904//EN"
 "http://www.w3.org/TR/2001/REC-SVG-20010904/DTD/svg10.dtd">
<svg version="1.0" xmlns="http://www.w3.org/2000/svg"
 width="1080.000000pt" height="1080.000000pt" viewBox="0 0 1080.000000 1080.000000"
 preserveAspectRatio="xMidYMid meet">

<g transform="translate(0.000000,1080.000000) scale(0.100000,-0.100000)"
fill="#000000" stroke="none">
<path d="M5194 8287 c-12 -7 -34 -28 -50 -46 l-29 -35 0 -200 c0 -111 4 -212
8 -226 5 -14 22 -40 40 -57 l31 -33 222 0 222 0 41 42 41 43 0 219 0 219 -44
43 -43 44 -209 0 c-145 -1 -216 -4 -230 -13z m440 -73 c14 -13 16 -47 16 -215
0 -119 -4 -208 -10 -220 -10 -18 -23 -19 -223 -19 -152 0 -216 3 -225 12 -18
18 -17 421 1 437 9 7 87 12 213 14 109 1 202 3 206 5 4 1 14 -5 22 -14z"/>
<path d="M4347 7991 l-42 -40 -3 -486 -3 -486 45 -47 45 -47 490 0 490 0 41
40 40 39 0 221 0 221 -40 39 -41 40 -222 5 -222 5 -5 225 c-3 124 -7 226 -8
227 -1 1 -21 20 -44 42 l-43 41 -218 0 -218 0 -42 -39z m481 -43 c17 -17 17
-429 0 -446 -17 -17 -419 -17 -436 0 -17 17 -17 429 0 446 9 9 71 12 218 12
147 0 209 -3 218 -12z m0 -540 c9 -9 12 -73 12 -225 0 -200 -1 -213 -19 -223
-25 -13 -381 -13 -415 0 l-26 10 0 218 c0 120 3 222 7 225 12 13 428 8 441 -5z
m540 0 c9 -9 12 -71 12 -219 0 -175 -2 -210 -16 -223 -13 -13 -46 -16 -210
-16 -116 0 -203 4 -215 10 -18 10 -19 23 -19 229 0 120 3 221 7 224 12 13 428
8 441 -5z"/>
</g>
</svg>
