<?xml version="1.0" standalone="no"?>
<!DOCTYPE svg PUBLIC "-//W3C//DTD SVG 20010904//EN"
 "http://www.w3.org/TR/2001/REC-SVG-20010904/DTD/svg10.dtd">
<svg version="1.0" xmlns="http://www.w3.org/2000/svg"
 width="1080.000000pt" height="1080.000000pt" viewBox="0 0 1080.000000 1080.000000"
 preserveAspectRatio="xMidYMid meet">

<g transform="translate(0.000000,1080.000000) scale(0.100000,-0.100000)"
fill="red" stroke="none">
<path d="M5410 6806 c-271 -73 -447 -256 -511 -532 -19 -85 -21 -105 -11 -187
20 -173 62 -261 216 -451 142 -175 166 -252 166 -536 1 -186 17 -228 106 -269
39 -19 63 -21 201 -21 153 0 160 1 207 28 34 19 58 41 75 72 25 44 26 51 28
247 3 188 5 206 29 269 14 38 33 82 42 99 18 31 88 123 109 140 19 17 84 105
116 159 79 135 103 359 53 508 -48 142 -97 218 -199 314 -89 84 -171 126 -309
160 -121 30 -207 30 -318 0z m334 -106 c180 -62 321 -195 382 -364 29 -81 40
-206 25 -296 -13 -79 -75 -208 -132 -270 -118 -132 -175 -228 -215 -365 -34
-116 -32 -115 -233 -115 -161 0 -168 1 -188 23 -12 12 -24 40 -28 62 -18 106
-83 228 -187 348 -134 155 -168 233 -175 394 -4 97 -2 120 17 180 66 198 204
341 385 399 96 31 266 33 349 4z m18 -1527 c15 -13 18 -31 18 -101 0 -94 -20
-144 -63 -156 -12 -3 -82 -6 -155 -6 l-134 0 -29 31 c-27 29 -29 36 -29 117 0
74 3 89 22 109 21 22 27 23 186 23 140 0 168 -3 184 -17z"/>
</g>
</svg>
