<?xml version="1.0" standalone="no"?>
<!DOCTYPE svg PUBLIC "-//W3C//DTD SVG 20010904//EN"
 "http://www.w3.org/TR/2001/REC-SVG-20010904/DTD/svg10.dtd">
<svg version="1.0" xmlns="http://www.w3.org/2000/svg"
 width="108.000000pt" height="108.000000pt" viewBox="0 0 1080.000000 1080.000000"
 preserveAspectRatio="xMidYMid meet">

<g transform="translate(0.000000,1080.000000) scale(0.100000,-0.100000)"
fill="#000000" stroke="none">
<path d="M5252 7390 c-18 -11 -37 -32 -42 -46 -7 -17 -9 -218 -7 -545 3 -484
5 -520 22 -539 23 -26 84 -38 96 -19 5 8 9 217 9 464 0 400 2 453 16 474 24
34 57 23 179 -56 100 -66 228 -147 348 -222 59 -37 202 -128 292 -186 28 -17
109 -68 180 -112 72 -45 160 -101 197 -124 37 -24 93 -60 125 -79 76 -46 93
-64 93 -100 0 -24 -8 -35 -42 -57 -24 -15 -72 -46 -108 -68 -324 -207 -467
-297 -590 -371 -25 -15 -71 -47 -103 -72 l-58 -44 3 -51 c3 -48 5 -52 31 -55
19 -2 47 10 95 41 37 24 108 70 157 103 50 32 97 62 105 65 8 4 52 31 96 60
45 30 125 81 178 114 53 33 118 74 144 90 26 17 96 61 155 99 119 76 139 98
139 151 0 51 -20 75 -113 135 -130 83 -207 132 -292 186 -124 78 -186 117
-277 176 -93 60 -293 186 -368 232 -26 16 -76 48 -112 71 -36 23 -93 59 -128
81 -34 21 -113 72 -175 113 -97 64 -184 111 -205 111 -4 0 -22 -9 -40 -20z"/>
<path d="M4910 6077 c-36 -14 -74 -28 -85 -32 -41 -16 -125 -97 -155 -150 -18
-32 -44 -62 -61 -71 -30 -15 -31 -15 -75 30 -27 28 -54 46 -68 46 -27 0 -76
-48 -76 -75 0 -11 30 -50 67 -87 l67 -67 0 -101 c1 -99 0 -102 -27 -126 -21
-18 -35 -22 -57 -17 -19 3 -39 0 -55 -11 -20 -13 -25 -24 -25 -61 0 -51 16
-65 77 -65 50 0 80 -22 104 -77 35 -83 31 -96 -83 -226 -37 -43 -68 -83 -68
-90 0 -18 28 -55 51 -67 25 -14 34 -8 118 73 52 50 74 65 88 60 21 -7 74 -42
88 -57 46 -50 194 -106 278 -106 100 0 210 46 294 122 61 55 80 51 168 -32 41
-38 77 -70 80 -70 13 0 50 24 62 39 17 22 16 68 -1 78 -31 18 -138 151 -147
183 -9 29 -7 45 11 92 28 76 60 101 116 92 36 -5 44 -3 53 14 16 29 14 87 -4
102 -8 7 -26 9 -43 5 -73 -16 -102 29 -102 160 0 80 7 92 88 171 28 28 52 56
52 62 0 21 -62 82 -82 82 -12 0 -43 -20 -69 -45 -26 -25 -52 -45 -57 -45 -20
0 -53 37 -80 86 -54 101 -194 190 -315 200 -50 4 -75 0 -127 -19z m223 -150
c43 -26 91 -77 116 -124 16 -30 14 -75 -5 -101 -15 -22 -19 -22 -234 -22 -240
0 -250 2 -250 60 0 71 56 146 140 188 78 39 165 39 233 -1z m208 -408 c20 -20
21 -29 17 -162 -4 -135 -6 -145 -35 -202 -44 -85 -93 -138 -167 -179 -58 -33
-72 -36 -141 -36 -66 0 -84 4 -135 31 -72 39 -108 71 -147 129 -52 78 -73 157
-73 274 0 114 9 152 37 159 10 3 154 5 321 6 294 1 303 0 323 -20z"/>
</g>
</svg>
